<svg xmlns="http://www.w3.org/2000/svg" width="595.281" height="551.972"><g fill="#D7EAE2"><path d="M64.98 137.243l33.506 80.329c.204.488.682.807 1.211.806l392.343-.219c.528 0 1.005-.317 1.208-.805l33.532-80.082a1.311 1.311 0 0 0-1.21-1.817h-55.555c-.532 0-1.012.322-1.213.813L413.15 271.86h-88.022l56.078-134.618a1.31 1.31 0 0 0-1.209-1.815h-54.94a1.31 1.31 0 0 0-1.209.806l-27.24 65.256a.786.786 0 0 1-1.451 0l-27.239-65.255a1.312 1.312 0 0 0-1.21-.806h-54.936c-.936 0-1.57.952-1.21 1.816l56.191 134.617h-88.489l-55.925-135.622a1.31 1.31 0 0 0-1.212-.811H66.19c-.935 0-1.569.951-1.21 1.815z"/><path d="M122.385 271.86h55.879l43.308 104.563a.786.786 0 0 0 1.452.002l43.729-104.565h58.375l43.849 104.404a.786.786 0 0 0 1.453-.007l42.72-104.397h56.461c.935 0 1.568.95 1.211 1.812l-57.041 137.499a1.31 1.31 0 0 1-1.211.809h-85.583a1.31 1.31 0 0 1-1.208-.801l-29.217-69.172a.786.786 0 0 0-1.45.004l-28.888 69.318a1.314 1.314 0 0 1-1.211.807h-86.199a1.31 1.31 0 0 1-1.213-.813l-56.43-137.654a1.312 1.312 0 0 1 1.214-1.809z"/></g></svg>